<svg id="Layer_1" data-name="Layer 1" xmlns="http://www.w3.org/2000/svg" viewBox="0 0 2000 2000"><path d="M1990.75,1125.38c-2,39.09-15.1,77.65-23.63,116.35-25.7,116.54-72.23,226.28-142.38,320.6-57.16,76.84-115.68,156.36-197.91,211.78-55.27,37.26-107.26,80-165,112.65-46.28,26.16-98.59,42.1-149.06,60.26-59.86,21.52-121.79,34.89-185,43.07-141.07,18.27-278.81,3.9-415.3-34.76-129.08-36.56-242.3-100.5-346.28-184.27-92.95-74.9-167.64-165.76-229.59-265.75-36.25-58.54-71.76-119.88-84.61-190.75C44,1271.09,26.84,1229.35,18.12,1186-1,1090.54-9.7,994.91,16,898.51c14.67-55.1,21.23-112.38,36.43-167.29,54-195,175.76-334.86,354.14-427.4,128-66.37,266.07-87,407.34-81.85,121.24,4.39,241.58,25.43,349.45,84.29,50.48,27.53,102.2,58.58,135.31,110.56,11.69,18.34,29.93,32.36,43,50,42,56.76,54.29,124.74,64.89,191.75,7.09,44.93,4,91.53,4.58,137.4q2,169.35,3,338.7c.4,89.07,1,178.19-1.06,267.23-1.44,60.94-48.53,112.56-104.42,119-67.57,7.77-130.86-13.77-151.25-90.93-19.45-73.55-10.36-148.72-12.43-223.24-.41-14.29,2.06-28.79.41-42.87-3.81-32.7-23.24-52.8-56.07-54.13-39.69-1.61-79.74-1.78-119.26,1.62-52.81,4.56-74.09,27.14-75,79.81-.89,52.45,2.75,105,3.73,157.49.44,23.82,1.4,47.94-1.64,71.42-6.57,50.65-37.8,85.7-83.7,101.51-48.81,16.82-99.54,9.67-140.12-23.89-35.75-29.56-39.18-75.75-41.24-118.41-3.26-66.72-2-133.67-2.56-200.54q-1.49-167.09-2.88-334.18c-.26-35,1.59-70.12-.13-105C624.55,698,642,669.25,670.2,639,710.9,595.46,756.68,593.48,805,610c57.87,19.74,86.89,69.42,86.21,129.6-.46,39.69-.78,79.57,2.45,119.07,4.44,54.18,22,69.62,75.51,70.57,38.19.69,76.41.2,114.59-.89,33.19-1,53.64-14.1,54.26-41.69,2.18-96.7,12.5-193.75-10.63-289.82-8.86-36.78-30.73-60.65-60-82.26-108.53-80.09-231.88-88.94-359.63-77.34a815.69,815.69,0,0,0-94.26,13.85c-147.3,31.09-255.69,112.42-326.66,246.78-37.48,71-51,146.25-60.14,223.75-3.52,30-9.37,59.91-9.92,89.94-2,112,28.35,216.61,75.68,317.26,62.52,133,157.94,239.22,275.61,323.15,56,40,122.44,69.53,188.39,90.51,84.59,26.92,173.29,41.77,263.49,36.08,199.84-12.6,381-70.85,522.77-220.22,103.64-109.21,177.56-235.69,212.49-383.44,40.53-171.46,19-337-43.12-500-31.41-82.4-68.75-161.11-124.89-229-75.5-91.35-163.69-168-267.37-227.46C1202,150.81,1074,113,942,93.82,833.8,78.06,722.9,77.2,614.82,106.67c-12,3.26-24.34,5.08-36.52,7.56A1098.24,1098.24,0,0,1,705.06,57c57.12-17.28,115.13-31,174.83-39.93,32-4.81,63.46-13.15,95.64-14.66a191.3,191.3,0,0,1,26.52.49c163.81,15,324.71,40.68,472.52,120.28,160.47,86.41,289,205,384.53,361,62.32,101.77,99.48,212.19,126.13,327,6.39,27.58,6.85,56.9,7.11,85.44C1993,972.84,1994.73,1049.29,1990.75,1125.38Z"/><path d="M4.29,1099.31s17,153.87,61.07,266.43,0-171.68,0-171.68Z"/><path d="M.59,1000.08S-4.14,883,70.81,674,51.43,943,51.43,943Z"/><path d="M1271,381.88s38,33.59,81.34,100.62-107-27.29-107-27.29Z"/><path d="M1287.21,1955.66s266.65-66.91,451.64-283.61S1287.21,1876,1287.21,1876Z"/><path d="M1989.12,1143.11s24.48-110.93,0-302.12-109.89,322.48-109.89,322.48Z"/><path d="M975.53,2.21v39.6L658.14,87.7,578.3,114.23A1098.24,1098.24,0,0,1,705.06,57C867.17-3.81,975.53,2.21,975.53,2.21Z"/></svg>