<?xml version="1.0" encoding="UTF-8"?><svg id="Layer_2" xmlns="http://www.w3.org/2000/svg" viewBox="0 0 1584.81 381.32"><defs><style>.cls-1{fill:#231f20;}.cls-2{fill:#808285;}.cls-3{fill:#be1e2d;fill-rule:evenodd;}</style></defs><g id="Layer_1-2"><g><g><path class="cls-1" d="M37.12,252.07c10.25,0,17.35,.6,21.32,1.8,3.97,1.21,5.95,3.53,5.95,6.98,0,3.16-1.28,5.97-3.83,8.43-9.92-4.53-19.12-6.8-27.62-6.8-6,0-10.23,1.19-12.71,3.58-2.48,2.38-3.72,5.68-3.72,9.88s1.47,7.89,4.42,10.48,8.56,5.2,16.82,7.79c9.77,2.93,17.17,6.29,22.2,10.09s7.68,9.95,7.97,18.45c0,9.49-3.25,16.67-9.74,21.53-6.49,4.86-16.42,7.29-29.79,7.29-9.3,0-16.36-.66-21.17-1.98-4.82-1.32-7.23-3.78-7.23-7.36,0-3.26,1.37-6.14,4.11-8.64,9.35,5.1,19.07,7.65,29.18,7.65,6.94,0,11.87-1.13,14.8-3.4,2.93-2.27,4.39-5.76,4.39-10.48,0-5.67-2.11-9.92-6.34-12.75-4.23-2.83-10.97-5.71-20.22-8.64-8.97-2.74-15.36-6.17-19.16-10.31-3.8-4.13-5.7-9.55-5.7-16.25,0-8.36,3.11-15,9.31-19.93s15.12-7.4,26.74-7.4Z"/><path class="cls-1" d="M137.55,288.76c-2.27,6.94-6.81,21.53-13.63,43.77-6.82,22.24-11.87,35.37-15.16,39.38-3.28,4.01-6.99,6.59-11.12,7.72-4.14,1.13-8.85,1.7-14.13,1.7s-8.49-.38-10.02-1.13c-1.54-.75-2.3-2.15-2.3-4.18,0-2.51,.8-4.77,2.41-6.8,8.88,1.79,15.41,2.47,19.62,2.02,4.2-.45,8.38-7.19,12.54-20.22-3.92-.14-6.05-.33-6.37-.57-.33-.24-2.81-8.19-7.44-23.87-4.63-15.68-7.52-25.25-8.68-28.72-1.16-3.47-2.08-5.88-2.76-7.22s-1.55-2.17-2.59-2.48c-1.04-.31-2.38-.46-4.04-.46-.62-1.56-.92-3-.92-4.32,0-1.6,.8-2.56,2.41-2.87,1.6-.31,4.86-.46,9.77-.46,3.78,0,6.32,.23,7.65,.67s2.24,1.27,2.76,2.48c.52,1.21,1.31,4.54,2.37,10.02,1.06,5.48,3.31,14.6,6.73,27.37,3.42,12.77,5.35,19.16,5.77,19.16s2.57-7.35,6.45-22.06c3.87-14.71,6.09-24.35,6.66-28.93h-3.83c-.56-1.37-.85-2.76-.85-4.18s.27-2.41,.81-2.97,1.43-.85,2.66-.85h19.97c.61,1.32,.92,2.74,.92,4.25s-.31,2.46-.92,2.97c-.62,.52-1.68,.78-3.19,.78h-1.56Z"/><path class="cls-1" d="M182.52,278.98c6.23,0,11.18,.6,14.84,1.8,3.66,1.21,5.49,3.15,5.49,5.85s-1.18,5.55-3.54,8.28c-9.25-4.29-16.57-6.45-21.96-6.45-3.64,0-6.36,.69-8.18,2.06s-2.73,3.35-2.73,5.95,1.03,4.91,3.08,6.66c2.06,1.75,6.27,3.8,12.64,6.16,8.03,2.83,13.74,5.77,17.14,8.82,3.4,3.04,5.1,7.23,5.1,12.57,0,6.75-2.6,11.92-7.79,15.51-5.2,3.59-12.58,5.38-22.17,5.38-7.32,0-12.9-.52-16.75-1.56-3.85-1.04-5.77-3.21-5.77-6.52,0-2.41,.92-4.77,2.76-7.08,8.08,3.78,15.58,5.67,22.52,5.67,4.35,0,7.58-.71,9.7-2.12,2.12-1.42,3.19-3.68,3.19-6.8,0-3.35-1.62-6.01-4.85-7.97-3.24-1.96-8.3-4.29-15.19-6.98-6.8-2.6-11.5-5.33-14.09-8.21-2.6-2.88-3.9-6.54-3.9-10.98,0-6,2.58-10.84,7.72-14.52,5.14-3.68,12.72-5.52,22.73-5.52Z"/><path class="cls-1" d="M220.34,280.75h4.82l5.74-20.11c1.98,.61,3.67,1.35,5.06,2.2,1.39,.85,2.42,1.85,3.08,3.01,.66,1.16,.99,5.16,.99,12.01v2.9h23.3c.56,1.56,.85,3.21,.85,4.96,0,1.37-.26,2.28-.78,2.73-.52,.45-1.56,.67-3.12,.67h-20.26v33.5c0,7.98,.73,13.23,2.19,15.76,1.46,2.53,3.67,3.86,6.62,4s6.57-.83,10.87-2.9c1.04,1.56,1.56,3.26,1.56,5.1,0,2.5-1.38,4.18-4.14,5.03-2.76,.85-7.12,1.28-13.07,1.28-6.47,0-11.18-1.32-14.13-3.97s-4.42-7.58-4.42-14.8v-16.64c0-9.07-.26-17.85-.78-26.35h-6.94c-.56-1.7-.85-3.35-.85-4.96,0-1.18,.26-2.04,.78-2.59,.52-.54,1.39-.82,2.62-.82Z"/><path class="cls-1" d="M307.89,278.98c8.78,0,15.3,2.08,19.55,6.23,4.25,4.16,6.38,11,6.38,20.54,0,4.2-.76,7.13-2.27,8.78-1.51,1.65-4.82,2.48-9.92,2.48h-31.31c.09,7.7,1.64,13.74,4.64,18.13,3,4.39,8.3,6.59,15.9,6.59,7.08,0,13.67-1.84,19.76-5.53,2.03,2.03,3.05,4.18,3.05,6.45,0,3.16-2.61,5.38-7.83,6.66-5.22,1.27-11.11,1.91-17.67,1.91-12.09,0-20.76-2.56-26.03-7.68s-7.9-13.75-7.9-25.89,2.96-21.38,8.89-28.29c5.93-6.92,14.18-10.38,24.76-10.38Zm-2.69,9.49c-4.72,0-8.31,1.69-10.77,5.06-2.45,3.38-3.8,8.66-4.04,15.83h7.3c7.74,0,13.02-.15,15.83-.46,2.81-.31,4.44-.81,4.89-1.52,.45-.71,.67-2.03,.67-3.97,0-4.68-1.18-8.33-3.54-10.98-2.36-2.64-5.8-3.97-10.34-3.97Z"/><path class="cls-1" d="M410.87,304.83c0,19.79,.17,32.46,.5,38.03h7.51c.61,1.23,.92,2.55,.92,3.97,0,1.27-.26,2.15-.78,2.62-.52,.48-1.53,.71-3.04,.71h-25c-.56-1.51-.85-2.93-.85-4.25,0-1.04,.25-1.81,.74-2.3s1.36-.74,2.59-.74h2.41c.33-6.94,.5-16.64,.5-29.11,0-9.73-1.03-16.19-3.08-19.4-2.06-3.21-5.37-4.82-9.95-4.82-2.97,0-5.89,1.11-8.75,3.33s-4.29,6.21-4.29,11.97v14.95c0,8.36,.17,16.05,.5,23.09h5.74c.56,1.23,.85,2.55,.85,3.97,0,1.27-.26,2.15-.78,2.62-.52,.48-1.51,.71-2.97,.71h-25.71c-.62-1.51-.92-2.93-.92-4.25,0-1.04,.26-1.81,.78-2.3,.52-.5,1.37-.74,2.55-.74h4.89c.38-7.51,.56-16.72,.56-27.62,0-13.93-.54-22-1.63-24.22-1.09-2.22-3.16-3.33-6.23-3.33-.62-1.32-.92-2.69-.92-4.11,0-1.27,.5-2.09,1.49-2.44s7.25-.72,18.77-1.1c.28,2.17,.28,4.96,0,8.36,4.67-3.12,9.17-5.41,13.49-6.87,4.32-1.46,8.32-2.19,12-2.19,4.68,0,8.26,.81,10.77,2.44,2.5,1.63,4.2,3.7,5.1,6.2,4.25-2.88,8.51-5.04,12.79-6.48,4.27-1.44,8.2-2.16,11.79-2.16,5.8,0,10.3,1.45,13.49,4.36,3.19,2.9,4.78,8.44,4.78,16.61,0,25.4,.36,38.86,1.1,40.37,.73,1.51,2.42,2.24,5.06,2.2,.52,1.37,.78,2.74,.78,4.11,0,1.28-.4,2.12-1.21,2.55-.8,.42-2.29,.64-4.46,.64-6.56,0-10.58-.08-12.04-.25s-2.45-.66-2.97-1.49-.78-2.21-.78-4.14v-30.53c0-9.73-1.03-16.19-3.08-19.4s-5.37-4.82-9.95-4.82c-2.97,0-5.89,1.11-8.75,3.33s-4.28,6.21-4.28,11.97Z"/><path class="cls-1" d="M501.95,278.98c6.23,0,11.18,.6,14.84,1.8,3.66,1.21,5.49,3.15,5.49,5.85s-1.18,5.55-3.54,8.28c-9.25-4.29-16.57-6.45-21.96-6.45-3.64,0-6.36,.69-8.18,2.06s-2.73,3.35-2.73,5.95,1.03,4.91,3.08,6.66c2.06,1.75,6.27,3.8,12.64,6.16,8.03,2.83,13.74,5.77,17.14,8.82,3.4,3.04,5.1,7.23,5.1,12.57,0,6.75-2.6,11.92-7.79,15.51-5.2,3.59-12.58,5.38-22.17,5.38-7.32,0-12.9-.52-16.75-1.56-3.85-1.04-5.77-3.21-5.77-6.52,0-2.41,.92-4.77,2.76-7.08,8.08,3.78,15.58,5.67,22.52,5.67,4.35,0,7.58-.71,9.7-2.12,2.12-1.42,3.19-3.68,3.19-6.8,0-3.35-1.62-6.01-4.85-7.97-3.24-1.96-8.3-4.29-15.19-6.98-6.8-2.6-11.5-5.33-14.09-8.21-2.6-2.88-3.9-6.54-3.9-10.98,0-6,2.58-10.84,7.72-14.52,5.14-3.68,12.72-5.52,22.73-5.52Z"/><path class="cls-1" d="M610.46,252.07c8.17,0,14.45,1.63,18.84,4.89,4.39,3.26,6.59,7.7,6.59,13.32,0,4.63-1.63,9.15-4.89,13.56-3.26,4.42-8.64,9.64-16.15,15.69l22.52,22.02c2.88-5.62,4.79-12.06,5.74-19.34,3.64,0,6.33,.34,8.08,1.03,1.74,.69,2.62,2.09,2.62,4.21,0,4.53-1.96,10.25-5.88,17.14-.8,1.46-1.72,2.88-2.76,4.25,5.81,5.48,9.3,8.67,10.49,9.56,2.07,1.61,3.93,2.75,5.56,3.44,1.63,.69,3.53,1.03,5.7,1.03,.8,2.88,.72,4.93-.25,6.16-.97,1.23-3.65,1.84-8.04,1.84-6.04,0-9.79-.45-11.26-1.35s-3.11-2.36-4.96-4.39c-.76-.85-2.97-3.12-6.66-6.8-2.03,1.7-4.25,3.35-6.66,4.96-8.59,5.52-18.48,8.28-29.67,8.28-8.36,0-14.62-1.65-18.77-4.96-4.16-3.3-6.24-8.09-6.24-14.38,0-7.93,3.76-15.04,11.26-21.32,4.86-4.16,8.88-7.51,12.04-10.06-4.63-4.72-7.96-8.26-9.98-10.62-4.16-4.91-6.24-9.92-6.24-15.01,0-7.09,2.79-12.71,8.36-16.89,5.57-4.18,12.44-6.27,20.61-6.27Zm-5.74,55.74c-3.35,2.83-6.11,5.29-8.29,7.37-4.01,3.87-6.02,8.21-6.02,13.03,0,4.16,1.39,7.51,4.18,10.06s6.73,3.83,11.83,3.83c7.32,0,13.77-2.15,19.34-6.45,1.37-1.08,2.64-2.2,3.82-3.33l-24.85-24.51Zm-4.6-23.73c1.27,1.6,3.85,4.44,7.72,8.5,2.17-1.89,4.49-4.06,6.94-6.52,4.39-4.35,6.58-8.47,6.58-12.39,0-3.64-1.21-6.56-3.61-8.78-2.41-2.22-5.5-3.33-9.28-3.33s-6.74,1.06-9.03,3.19c-2.29,2.12-3.46,4.98-3.5,8.57,0,3.49,1.39,7.08,4.18,10.77Z"/><path class="cls-1" d="M751.68,252.07c10.25,0,17.35,.6,21.31,1.8,3.97,1.21,5.95,3.53,5.95,6.98,0,3.16-1.27,5.97-3.81,8.43-9.92-4.53-19.13-6.8-27.63-6.8-6,0-10.23,1.19-12.71,3.58-2.48,2.38-3.72,5.68-3.72,9.88s1.47,7.89,4.42,10.48c2.95,2.6,8.56,5.2,16.82,7.79,9.78,2.93,17.18,6.29,22.21,10.09,5.03,3.8,7.68,9.95,7.97,18.45,0,9.49-3.25,16.67-9.75,21.53-6.49,4.86-16.42,7.29-29.78,7.29-9.3,0-16.35-.66-21.17-1.98-4.81-1.32-7.22-3.78-7.22-7.36,0-3.26,1.37-6.14,4.11-8.64,9.34,5.1,19.07,7.65,29.18,7.65,6.94,0,11.88-1.13,14.8-3.4,2.93-2.27,4.39-5.76,4.39-10.48,0-5.67-2.11-9.92-6.34-12.75-4.23-2.83-10.97-5.71-20.22-8.64-8.97-2.74-15.36-6.17-19.16-10.31-3.8-4.13-5.7-9.55-5.7-16.25,0-8.36,3.11-15,9.32-19.93,6.2-4.93,15.12-7.4,26.74-7.4Z"/><path class="cls-1" d="M826.55,351.58c-10.25,0-17.78-2.71-22.59-8.14-4.82-5.43-7.22-13.62-7.22-24.58,0-12.61,2.91-22.41,8.75-29.4,5.83-6.99,14.25-10.48,25.25-10.48,10.25,0,17.78,2.72,22.59,8.15s7.22,13.64,7.22,24.64c0,12.56-2.91,22.33-8.75,29.32-5.83,6.99-14.25,10.48-25.25,10.48Zm2.69-9.49c5.38,0,9.28-2.03,11.69-6.09,2.41-4.06,3.62-10.32,3.62-18.77,0-9.73-1.24-16.95-3.72-21.67-2.48-4.72-6.74-7.09-12.79-7.09-5.38,0-9.28,2.03-11.69,6.09-2.41,4.06-3.62,10.34-3.62,18.84,0,9.68,1.24,16.88,3.72,21.6s6.74,7.08,12.79,7.08Z"/><path class="cls-1" d="M881.08,309.58c0-19.97-.09-32.69-.28-38.14-.19-5.45-.53-9.01-1.03-10.66s-1.31-2.71-2.44-3.19c-1.13-.47-2.62-.71-4.46-.71-.61-1.46-.92-2.91-.92-4.32s.6-2.39,1.8-2.76c1.21-.38,5.09-.57,11.65-.57,3.73,0,6.25,.18,7.57,.53s2.08,1.02,2.27,1.98c.19,.97,.28,2.63,.28,5v59.28c.04,11.33,.23,20.28,.56,26.84h7.86c.56,1.23,.85,2.55,.85,3.97,0,1.27-.26,2.15-.78,2.62-.52,.48-1.51,.71-2.97,.71h-28.19c-.61-1.51-.92-2.93-.92-4.25,0-1.04,.25-1.81,.78-2.3,.52-.5,1.37-.74,2.55-.74h5.24c.38-6.56,.56-17.66,.56-33.29Z"/><path class="cls-1" d="M976.28,321.69c0,9.49,.38,15.32,1.13,17.49,.76,2.17,2.27,3.14,4.54,2.91,.56,1.13,.85,2.24,.85,3.33,0,1.75-1.34,3.09-4.04,4.04s-5.32,1.42-7.86,1.42c-1.65,0-2.86-.33-3.61-.99-.76-.66-1.94-2.45-3.55-5.38-3.77,2.17-7.68,3.9-11.72,5.17s-8.28,1.91-12.71,1.91c-5.86,0-10.4-1.61-13.63-4.85-3.24-3.23-4.85-9.17-4.85-17.81,0-16.86-.08-27.09-.25-30.7s-.56-6.1-1.17-7.47-1.41-2.22-2.4-2.55-2.08-.5-3.26-.5c-.62-.99-.92-2.1-.92-3.33,0-1.65,1.16-2.79,3.47-3.4s5.52-.92,9.63-.92c3.26,0,5.49,.2,6.69,.6,1.21,.4,1.96,1.06,2.27,1.98,.3,.92,.46,4.03,.46,9.31v26.7c0,9.68,1.07,16.01,3.22,18.98s5.13,4.46,8.96,4.46c2.69,0,5.31-.57,7.86-1.7,2.55-1.13,4.26-2.71,5.13-4.74,.87-2.03,1.32-5.95,1.32-11.76,0-13.5-.06-22-.18-25.5-.12-3.49-.45-5.98-.99-7.47s-1.27-2.4-2.16-2.73-2.05-.5-3.47-.5c-.61-.99-.92-2.1-.92-3.33,0-1.65,1.22-2.79,3.65-3.4s5.47-.92,9.1-.92c3.26,0,5.49,.2,6.69,.6,1.21,.4,1.96,1.12,2.27,2.16,.3,1.04,.46,4.2,.46,9.49v29.39Z"/><path class="cls-1" d="M998.09,280.75h4.82l5.74-20.11c1.98,.61,3.67,1.35,5.06,2.2,1.4,.85,2.42,1.85,3.08,3.01s.99,5.16,.99,12.01v2.9h23.3c.56,1.56,.85,3.21,.85,4.96,0,1.37-.26,2.28-.78,2.73-.52,.45-1.56,.67-3.11,.67h-20.26v33.5c0,7.98,.73,13.23,2.2,15.76,1.46,2.53,3.67,3.86,6.62,4,2.95,.14,6.58-.83,10.87-2.9,1.04,1.56,1.56,3.26,1.56,5.1,0,2.5-1.38,4.18-4.15,5.03-2.76,.85-7.12,1.28-13.07,1.28-6.47,0-11.18-1.32-14.13-3.97s-4.43-7.58-4.43-14.8v-16.64c0-9.07-.25-17.85-.78-26.35h-6.94c-.56-1.7-.85-3.35-.85-4.96,0-1.18,.25-2.04,.78-2.59,.52-.54,1.39-.82,2.62-.82Z"/><path class="cls-1" d="M1075.36,342.87h7.51c.61,1.23,.92,2.55,.92,3.97,0,1.27-.26,2.15-.78,2.62-.52,.48-1.54,.71-3.04,.71h-27.84c-.56-1.51-.85-2.93-.85-4.25,0-1.04,.25-1.81,.74-2.3s1.36-.74,2.58-.74h5.24c.33-6.56,.5-14.26,.5-23.09,0-10.77-.08-17.96-.25-21.57s-.55-6.1-1.16-7.47-1.48-2.22-2.59-2.55-2.49-.5-4.14-.5c-.62-.99-.92-2.15-.92-3.47,0-1.93,.92-3.12,2.76-3.54,1.84-.43,5.41-.64,10.69-.64,3.73,0,6.26,.18,7.58,.53s2.07,1.02,2.27,1.98c.19,.97,.28,2.63,.28,4.99v32.23c0,8.83,.17,16.53,.5,23.09Zm-10.06-74.93c-3.06,0-5.34-.64-6.8-1.91-1.47-1.27-2.2-3.12-2.2-5.52,.05-2.6,.99-4.68,2.84-6.23,1.84-1.56,4.43-2.34,7.79-2.34s5.67,.67,7.09,2.02c1.41,1.35,2.12,3.15,2.12,5.42,0,2.55-.87,4.61-2.62,6.2-1.75,1.58-4.49,2.37-8.22,2.37Z"/><path class="cls-1" d="M1124.94,351.58c-10.25,0-17.78-2.71-22.59-8.14-4.82-5.43-7.22-13.62-7.22-24.58,0-12.61,2.91-22.41,8.75-29.4,5.83-6.99,14.25-10.48,25.25-10.48,10.25,0,17.78,2.72,22.59,8.15s7.22,13.64,7.22,24.64c0,12.56-2.91,22.33-8.75,29.32s-14.25,10.48-25.25,10.48Zm2.69-9.49c5.38,0,9.28-2.03,11.69-6.09,2.41-4.06,3.62-10.32,3.62-18.77,0-9.73-1.24-16.95-3.72-21.67-2.48-4.72-6.74-7.09-12.79-7.09-5.38,0-9.28,2.03-11.69,6.09-2.41,4.06-3.62,10.34-3.62,18.84,0,9.68,1.24,16.88,3.72,21.6,2.48,4.72,6.74,7.08,12.79,7.08Z"/><path class="cls-1" d="M1191.86,288.4c4.68-3.12,9.29-5.41,13.85-6.87,4.56-1.46,8.63-2.19,12.22-2.19,6.27,0,11.01,1.45,14.2,4.36,3.19,2.9,4.78,8.44,4.78,16.61,0,25.4,.36,38.86,1.09,40.37,.74,1.51,2.42,2.24,5.07,2.2,.52,1.37,.78,2.74,.78,4.11,0,1.28-.4,2.12-1.21,2.55-.8,.42-2.29,.64-4.46,.64-6.56,0-10.58-.08-12.04-.25-1.47-.17-2.46-.66-2.97-1.49-.52-.83-.78-2.21-.78-4.14v-30.53c0-9.73-1.03-16.19-3.08-19.4s-5.37-4.82-9.95-4.82c-3.92,0-7.31,1.11-10.16,3.33s-4.28,6.21-4.28,11.97v14.95c0,8.36,.17,16.05,.5,23.09h7.86c.57,1.23,.85,2.55,.85,3.97,0,1.27-.26,2.15-.78,2.62-.52,.48-1.51,.71-2.97,.71h-27.84c-.61-1.51-.92-2.93-.92-4.25,0-1.04,.25-1.81,.78-2.3,.52-.5,1.37-.74,2.55-.74h4.89c.38-7.51,.56-16.72,.56-27.62,0-13.93-.54-22-1.63-24.22-1.09-2.22-3.17-3.33-6.24-3.33-.61-1.32-.92-2.69-.92-4.11,0-1.27,.5-2.09,1.49-2.44s7.24-.72,18.76-1.1c.29,2.17,.29,4.96,0,8.36Z"/><path class="cls-1" d="M1287.34,278.98c6.23,0,11.18,.6,14.84,1.8,3.66,1.21,5.49,3.15,5.49,5.85s-1.18,5.55-3.54,8.28c-9.25-4.29-16.57-6.45-21.96-6.45-3.64,0-6.36,.69-8.18,2.06s-2.73,3.35-2.73,5.95,1.03,4.91,3.08,6.66c2.05,1.75,6.27,3.8,12.64,6.16,8.02,2.83,13.74,5.77,17.14,8.82,3.39,3.04,5.1,7.23,5.1,12.57,0,6.75-2.6,11.92-7.79,15.51-5.2,3.59-12.59,5.38-22.17,5.38-7.32,0-12.9-.52-16.75-1.56-3.85-1.04-5.77-3.21-5.77-6.52,0-2.41,.92-4.77,2.76-7.08,8.07,3.78,15.58,5.67,22.52,5.67,4.34,0,7.57-.71,9.7-2.12,2.12-1.42,3.19-3.68,3.19-6.8,0-3.35-1.62-6.01-4.85-7.97-3.24-1.96-8.3-4.29-15.19-6.98-6.8-2.6-11.5-5.33-14.1-8.21-2.6-2.88-3.9-6.54-3.9-10.98,0-6,2.58-10.84,7.72-14.52,5.15-3.68,12.73-5.52,22.74-5.52Z"/><path class="cls-1" d="M1385.29,341.02h6.02c14.36,0,25.83-1.65,34.42-4.96,1.51,2.6,2.27,5.29,2.27,8.07,0,2.08-.68,3.6-2.05,4.57-1.37,.97-4.16,1.45-8.36,1.45l-56.52,.07c-.61-1.6-.92-3.12-.92-4.53,0-.94,.25-1.64,.74-2.09,.5-.45,1.31-.67,2.44-.67h5.25c.32-6.61,.5-23.47,.5-50.57,0-14.5-.19-25.03-.57-31.59h-7.44c-.61-1.6-.92-3.09-.92-4.46,0-.99,.25-1.71,.74-2.16,.5-.45,1.31-.67,2.44-.67h30.67c.61,1.42,.92,2.79,.92,4.11,0,1.18-.24,2.01-.71,2.48-.48,.48-1.32,.71-2.55,.71h-6.38c-.33,6.56-.5,17.38-.5,32.44,0,26.54,.17,42.47,.5,47.81Z"/><path class="cls-1" d="M1461.58,341.02h6.02c14.36,0,25.83-1.65,34.42-4.96,1.51,2.6,2.27,5.29,2.27,8.07,0,2.08-.68,3.6-2.05,4.57-1.37,.97-4.16,1.45-8.36,1.45l-56.52,.07c-.61-1.6-.92-3.12-.92-4.53,0-.94,.25-1.64,.74-2.09,.5-.45,1.31-.67,2.44-.67h5.25c.32-6.61,.5-23.47,.5-50.57,0-14.5-.19-25.03-.57-31.59h-7.44c-.61-1.6-.92-3.09-.92-4.46,0-.99,.25-1.71,.74-2.16,.5-.45,1.31-.67,2.44-.67h30.67c.61,1.42,.92,2.79,.92,4.11,0,1.18-.24,2.01-.71,2.48-.48,.48-1.32,.71-2.55,.71h-6.38c-.33,6.56-.5,17.38-.5,32.44,0,26.54,.17,42.47,.5,47.81Z"/><path class="cls-1" d="M1558.4,341.24c8.4,0,15.95-2.17,22.66-6.52,2.51,2.6,3.75,5.31,3.75,8.15,0,2.64-3.04,4.76-9.14,6.34-6.09,1.58-13.41,2.37-21.95,2.37-13.65,0-23.7-3.21-30.17-9.63-6.47-6.42-9.7-18.09-9.7-34.99,0-18.84,3.8-32.7,11.4-41.58,7.6-8.88,18.79-13.31,33.58-13.31,8.21,0,14.42,.66,18.63,1.98,4.2,1.32,6.3,3.56,6.3,6.73,0,2.6-1.3,5.17-3.9,7.72-8.5-4.06-16.64-6.09-24.43-6.09s-14.07,2.89-18.13,8.68c-4.06,5.78-6.09,15.57-6.09,29.36,0,15.25,2.13,25.86,6.41,31.84,4.27,5.97,11.2,8.96,20.79,8.96Z"/></g><g><g><path class="cls-2" d="M763.61,203.08h54.41l-4.32-3.04V2.82L817.8,0h-54.19l4.32,3.08V97.99h-50.67c28.51,5.33,50.41,24.94,50.41,47.32l.26,54.72-4.32,3.04Z"/><polygon class="cls-2" points="644.73 203.08 699.19 203.08 694.87 200.03 694.87 2.82 698.97 0 644.73 0 649.09 3.09 649.09 200.03 644.73 203.08"/></g><g><path class="cls-3" d="M926.92,101.54c8.25-10.65,13.16-24.02,13.16-38.54,0-17.4-7.05-33.15-18.45-44.55-11.4-11.4-27.15-18.45-44.55-18.45s-33.15,7.05-44.55,18.45c-11.4,11.4-18.45,27.15-18.45,44.55h7.45c0-15.34,6.22-29.23,16.27-39.28,10.05-10.05,23.94-16.27,39.28-16.27s29.23,6.22,39.28,16.27c10.05,10.05,16.27,23.94,16.27,39.28,0,12.27-3.98,23.62-10.72,32.81,1.78,1.8,3.45,3.72,5.01,5.72h0Zm-9.75-10.06c-1.91-1.58-3.92-3.05-6.01-4.4,4.81-6.8,7.64-15.11,7.64-24.08,0-11.52-4.67-21.96-12.22-29.51-7.55-7.55-17.98-12.22-29.51-12.22s-21.96,4.67-29.51,12.22c-7.55,7.55-12.22,17.98-12.22,29.51h-7.45c0-13.58,5.51-25.87,14.4-34.77,8.9-8.9,21.19-14.4,34.77-14.4s25.87,5.5,34.77,14.4c8.9,8.9,14.4,21.19,14.4,34.77,0,10.61-3.36,20.44-9.08,28.47h0Zm-11.58-7.59c-2.28-1.16-4.63-2.18-7.05-3.06,4.02-4.83,6.43-11.05,6.43-17.82,0-7.7-3.12-14.68-8.17-19.73-5.05-5.05-12.02-8.17-19.73-8.17s-14.68,3.12-19.73,8.17c-5.05,5.05-8.17,12.02-8.17,19.73h-7.45c0-9.76,3.96-18.6,10.35-24.99,6.4-6.4,15.23-10.35,24.99-10.35s18.6,3.96,24.99,10.35c6.4,6.4,10.35,15.23,10.35,24.99,0,7.81-2.53,15.03-6.83,20.88h0Zm-13.89-5.1c-4.69-1.12-9.59-1.71-14.63-1.71,3.89,0,7.4-1.57,9.95-4.12,2.54-2.55,4.12-6.06,4.12-9.95s-1.57-7.4-4.12-9.95c-2.55-2.55-6.07-4.12-9.95-4.12s-7.4,1.57-9.95,4.12c-2.55,2.55-4.12,6.06-4.12,9.95h-7.45c0-5.94,2.41-11.32,6.3-15.21,3.89-3.89,9.27-6.3,15.21-6.3s11.32,2.41,15.21,6.3c3.89,3.89,6.3,9.27,6.3,15.21s-2.41,11.32-6.3,15.21c-.19,.19-.39,.38-.59,.56Z"/><path class="cls-3" d="M916.36,179.36c-10.05,10.05-23.94,16.27-39.28,16.27s-29.23-6.22-39.28-16.27c-10.05-10.05-16.27-23.94-16.27-39.28h-7.45c0,17.4,7.05,33.15,18.45,44.55,11.4,11.4,27.15,18.45,44.55,18.45s33.15-7.05,44.55-18.45c11.4-11.4,18.45-27.15,18.45-44.55s-7.05-33.15-18.45-44.55c-11.4-11.4-27.15-18.45-44.55-18.45h-42.75v7.45h42.75c15.34,0,29.23,6.22,39.28,16.27,10.05,10.05,16.27,23.94,16.27,39.28s-6.22,29.23-16.27,39.28h0Zm-39.28-88.46c13.58,0,25.87,5.5,34.77,14.4,8.9,8.9,14.4,21.19,14.4,34.77s-5.5,25.87-14.4,34.77c-8.9,8.9-21.19,14.4-34.77,14.4s-25.87-5.5-34.77-14.4c-8.9-8.9-14.4-21.19-14.4-34.77h7.45c0,11.52,4.67,21.95,12.22,29.51,7.55,7.55,17.98,12.22,29.51,12.22s21.96-4.67,29.51-12.22c7.55-7.55,12.22-17.98,12.22-29.51s-4.67-21.96-12.22-29.51c-7.55-7.55-17.98-12.22-29.51-12.22h-42.75v-7.45h42.75Zm0,13.83h0c9.76,0,18.6,3.96,24.99,10.35,6.4,6.4,10.35,15.23,10.35,24.99s-3.96,18.6-10.35,24.99c-6.4,6.4-15.23,10.35-24.99,10.35s-18.6-3.96-24.99-10.35c-6.4-6.4-10.35-15.23-10.35-24.99h7.45c0,7.7,3.12,14.68,8.17,19.73,5.05,5.05,12.02,8.17,19.73,8.17s14.68-3.12,19.73-8.17c5.05-5.05,8.17-12.02,8.17-19.73s-3.12-14.68-8.17-19.73c-5.05-5.05-12.02-8.17-19.73-8.17h-42.75v-7.45h42.75Zm0,13.83c5.94,0,11.32,2.41,15.21,6.3,3.89,3.89,6.3,9.27,6.3,15.21s-2.41,11.32-6.3,15.21c-3.89,3.89-9.27,6.3-15.21,6.3s-11.32-2.41-15.21-6.3c-3.89-3.89-6.3-9.27-6.3-15.21h7.45c0,3.89,1.57,7.4,4.12,9.95s6.06,4.12,9.95,4.12,7.4-1.57,9.95-4.12c2.54-2.55,4.12-6.06,4.12-9.95s-1.57-7.4-4.12-9.95c-2.55-2.55-6.07-4.12-9.95-4.12v-7.45Zm0,0v7.45h-42.75v-7.45h42.75Z"/></g></g></g></g></svg>