<?xml version="1.0" encoding="UTF-8"?><svg id="Layer_1" xmlns="http://www.w3.org/2000/svg" viewBox="0 0 2000 2000"><defs><style>.cls-1{fill:#808285;}.cls-2{fill:#be1e2d;fill-rule:evenodd;}</style></defs><g><path class="cls-1" d="M805.29,1665.84h354.2l-28.11-19.79V362.33l26.68-18.35h-352.77l28.11,20.08V981.82H503.57c185.56,34.71,328.1,162.32,328.1,308.02l1.72,356.21-28.11,19.79Z"/><polygon class="cls-1" points="31.5 1665.84 385.99 1665.84 357.88 1646.05 357.88 362.33 384.55 343.98 31.5 343.98 59.89 364.05 59.89 1646.05 31.5 1665.84"/></g><g><path class="cls-2" d="M1868.34,1004.91c53.7-69.34,85.66-156.36,85.66-250.84,0-113.24-45.91-215.77-120.12-289.98-74.21-74.21-176.74-120.12-289.98-120.12s-215.77,45.91-289.98,120.12c-74.21,74.21-120.11,176.74-120.12,289.98h48.47c0-99.86,40.48-190.27,105.92-255.71,65.44-65.44,155.85-105.92,255.71-105.92s190.27,40.49,255.71,105.92c65.44,65.44,105.91,155.85,105.91,255.71,0,79.9-25.91,153.74-69.79,213.59,11.6,11.74,22.48,24.19,32.6,37.25h0Zm-63.46-65.5c-12.45-10.27-25.51-19.83-39.12-28.61,31.33-44.28,49.75-98.35,49.75-156.73,0-75.01-30.4-142.91-79.56-192.06-49.15-49.15-117.05-79.55-192.06-79.55s-142.91,30.41-192.06,79.55c-49.15,49.15-79.55,117.06-79.56,192.06h-48.46c0-88.39,35.83-168.41,93.75-226.33,57.93-57.93,137.94-93.75,226.33-93.75s168.41,35.83,226.33,93.75c57.92,57.92,93.75,137.94,93.75,226.33,0,69.07-21.88,133.04-59.09,185.34h0Zm-75.35-49.42c-14.81-7.53-30.13-14.19-45.91-19.91,26.15-31.46,41.88-71.9,41.88-116.02,0-50.15-20.33-95.55-53.19-128.41-32.86-32.86-78.26-53.19-128.41-53.19s-95.55,20.33-128.41,53.19c-32.86,32.86-53.19,78.26-53.19,128.41h-48.47c0-63.53,25.76-121.05,67.39-162.68,41.63-41.63,99.16-67.39,162.68-67.39s121.05,25.76,162.69,67.39c41.63,41.63,67.38,99.16,67.38,162.68,0,50.84-16.5,97.84-44.43,135.92h0Zm-90.42-33.21c-30.55-7.27-62.44-11.11-95.22-11.11,25.3,0,48.2-10.25,64.78-26.83,16.56-16.58,26.81-39.48,26.81-64.77s-10.25-48.19-26.81-64.77c-16.58-16.58-39.48-26.82-64.78-26.82s-48.19,10.25-64.77,26.82c-16.57,16.57-26.82,39.47-26.82,64.77h-48.47c0-38.67,15.68-73.69,41.02-99.04,25.34-25.35,60.36-41.02,99.04-41.02s73.7,15.68,99.04,41.02c25.35,25.35,41.02,60.36,41.02,99.04s-15.68,73.69-41.02,99.03c-1.25,1.25-2.52,2.47-3.82,3.67Z"/><path class="cls-2" d="M1799.61,1511.46c-65.45,65.44-155.85,105.92-255.71,105.92s-190.27-40.48-255.71-105.92c-65.44-65.44-105.92-155.84-105.92-255.7h-48.47c0,113.24,45.91,215.77,120.12,289.98,74.21,74.21,176.74,120.11,289.98,120.11s215.77-45.9,289.98-120.11c74.21-74.21,120.12-176.74,120.12-289.98s-45.91-215.77-120.12-289.98c-74.21-74.22-176.74-120.11-289.98-120.11h-278.27v48.47h278.27c99.87,0,190.27,40.47,255.71,105.92,65.44,65.44,105.91,155.84,105.91,255.7s-40.47,190.27-105.91,255.7h0Zm-255.71-575.79c88.39,0,168.41,35.83,226.33,93.75,57.92,57.92,93.75,137.94,93.75,226.33s-35.82,168.41-93.75,226.33c-57.92,57.93-137.94,93.76-226.33,93.76s-168.4-35.83-226.33-93.76c-57.92-57.92-93.75-137.94-93.75-226.33h48.46c0,75.01,30.41,142.91,79.56,192.06,49.15,49.15,117.06,79.55,192.06,79.55s142.91-30.41,192.06-79.55c49.15-49.16,79.56-117.06,79.56-192.06s-30.4-142.91-79.56-192.06c-49.15-49.15-117.05-79.55-192.06-79.55h-278.27v-48.46h278.27Zm0,90.01h0c63.54,0,121.05,25.75,162.69,67.39,41.63,41.63,67.38,99.15,67.38,162.68s-25.75,121.05-67.38,162.68c-41.63,41.63-99.15,67.39-162.69,67.39s-121.05-25.76-162.68-67.39c-41.63-41.63-67.39-99.15-67.39-162.68h48.47c0,50.15,20.33,95.55,53.19,128.41,32.86,32.86,78.27,53.19,128.41,53.19s95.55-20.32,128.41-53.19c32.86-32.86,53.19-78.26,53.19-128.41s-20.33-95.55-53.19-128.41c-32.86-32.86-78.26-53.19-128.41-53.19h-278.27v-48.47h278.27Zm0,90.01c38.67,0,73.7,15.68,99.04,41.02,25.35,25.35,41.02,60.36,41.02,99.03s-15.68,73.69-41.02,99.04c-25.34,25.35-60.37,41.02-99.04,41.02s-73.69-15.68-99.04-41.02c-25.34-25.35-41.02-60.36-41.02-99.04h48.47c0,25.29,10.25,48.2,26.82,64.77,16.57,16.57,39.47,26.82,64.77,26.82s48.2-10.25,64.78-26.82c16.56-16.57,26.81-39.47,26.81-64.77s-10.25-48.2-26.81-64.77c-16.58-16.58-39.48-26.82-64.78-26.82v-48.47Zm0,0v48.47h-278.27v-48.47h278.27Z"/></g></svg>